<svg width="191" height="32" viewBox="0 0 191 32" fill="none" xmlns="http://www.w3.org/2000/svg">
<path d="M81.8989 8.00024V24.3759H78.9011V13.623L73.8402 20.6982H72.0824L67.0214 13.623V24.3759H64V8.00024H66.3668L72.9495 17.2298L79.5557 8.00024H81.8989Z" fill="white"/>
<path d="M98.4608 8.00024H101.46V17.1606C101.46 19.2693 100.711 21.0727 99.2115 22.5724C97.7118 24.0721 95.9005 24.8212 93.776 24.8212C91.6516 24.8212 89.8403 24.0721 88.3406 22.5724C86.8409 21.0727 86.0918 19.2693 86.0918 17.1606V8.00024H89.1148V17.1606C89.1148 18.4415 89.5712 19.5352 90.4855 20.4401C91.3998 21.3465 92.4966 21.7998 93.7776 21.7998C95.0586 21.7998 96.179 21.3465 97.0918 20.4401C98.0061 19.5352 98.4624 18.4415 98.4624 17.1606V8.00024H98.4608Z" fill="white"/>
<path d="M120.554 8.00024V24.3759H118.352L108.677 13.1304V24.3759H105.654V8.00024H107.856L117.531 19.2221V8.00024H120.552H120.554Z" fill="white"/>
<path d="M131.916 8.00024C134.15 8.00024 136.052 8.79652 137.621 10.3891C139.192 11.9816 139.975 13.9109 139.975 16.1755C139.975 18.44 139.187 20.3724 137.608 21.9744C136.03 23.5749 134.134 24.3759 131.915 24.3759H124.863V8.00024H131.915H131.916ZM131.822 21.4473C133.243 21.4473 134.458 20.9311 135.465 19.9003C136.472 18.8696 136.976 17.628 136.976 16.1755C136.976 14.723 136.472 13.4813 135.465 12.4506C134.458 11.4198 133.243 10.9037 131.822 10.9037H127.886V21.4457H131.822V21.4473Z" fill="white"/>
<path d="M151.173 8.00024L157.71 24.3759H154.665L153.189 20.6982H145.199L143.723 24.3759H140.654L147.213 8.00024H151.173ZM146.299 17.9569H152.085L149.18 10.718L146.299 17.9569Z" fill="white"/>
<path d="M170.055 8.00024H173.498L166.821 17.8624V24.3759H163.8V17.8624L157.146 8.00024H160.59L165.322 15.0046L170.055 8.00024Z" fill="white"/>
<path d="M191 8.00024V24.3759H188.798L179.123 13.1304V24.3759H176.102V8.00024H178.303L187.978 19.2221V8.00024H191Z" fill="white"/>
<path d="M22.8155 31.8459L12.4407 31.7171L12.4845 30.187C12.4887 30.0624 12.4928 29.9117 12.4996 29.7377C12.7667 21.9724 11.7832 19.7752 11.1737 19.1574C11.1065 19.0903 11.0531 19.052 11.0079 19.0314C10.7682 19.304 10.0655 20.3437 9.31073 23.7339C8.79706 26.0393 8.53405 28.2104 8.53131 28.2323L8.37379 29.5487L7.04783 29.5597C6.66565 29.5624 3.29459 29.5912 2.60832 29.5583L1.58919 29.509L1.25633 28.5447C0.155013 25.3558 -0.247706 21.2916 0.149534 17.3918C0.635812 12.6208 2.27272 8.43605 4.88355 5.28826C4.963 5.19237 5.04929 5.08005 5.14655 4.9554C6.66428 3.00755 10.6956 -2.16617 22.6936 1.00491L23.2005 1.13915L23.5128 1.55694C23.5402 1.59255 24.9908 3.49246 26.651 4.29927C27.1331 4.5335 27.6742 4.58829 28.3577 4.65815C29.7029 4.79376 31.3768 4.96362 33.4602 6.52108C37.5436 9.57572 39.7996 14.3769 39.9873 20.4081C40.0531 22.5134 39.8942 25.8777 38.7709 29.9446C38.7613 29.9788 38.7531 30.009 38.7463 30.0336C38.66 30.5363 38.3038 31.2075 37.0477 31.3514C36.7765 31.3829 36.4094 31.4075 35.9272 31.4281C35.1684 31.4609 34.1177 31.4815 32.8041 31.4911C30.5864 31.5062 28.3399 31.4815 28.318 31.4815L26.8838 31.4651L26.829 30.0323C26.7455 27.8707 25.8962 25.7174 25.0908 25.5804C24.9579 25.6749 24.4072 26.1585 23.7552 28.0351C23.2991 29.346 23.058 30.5939 23.0553 30.6062L22.8169 31.8445L22.8155 31.8459ZM15.5433 28.7419L20.38 28.8022C20.5389 28.1871 20.765 27.4105 21.0567 26.6324C22.095 23.8641 23.473 22.4943 25.1524 22.5641C28.0441 22.6833 29.296 25.9516 29.6947 28.4803C32.2288 28.494 34.7793 28.4734 36.0587 28.409C36.9066 25.038 37.0285 22.2737 36.9738 20.5026C36.8135 15.348 35.0245 11.4565 31.6535 8.93603C30.2398 7.87854 29.2262 7.77581 28.0536 7.65801C27.2304 7.57445 26.2962 7.47993 25.3319 7.01146C23.5676 6.15397 22.095 4.56501 21.4499 3.79929C17.2542 2.75277 13.8393 2.74318 11.2969 3.77464C9.2395 4.60884 8.20667 5.93343 7.52315 6.81147C7.40534 6.96215 7.2985 7.09913 7.20261 7.21556C2.35354 13.0632 2.49052 21.7354 3.7973 26.5626C4.35344 26.5626 5.04929 26.5626 5.72186 26.5585C5.88076 25.5188 6.14376 23.9915 6.51361 22.4477C6.90537 20.8163 7.33959 19.4958 7.80532 18.5232C8.5957 16.8713 9.6025 16.0206 10.797 15.996C10.8216 15.996 10.8463 15.996 10.8709 15.996C11.7942 15.996 12.6393 16.3576 13.3174 17.0466C15.4008 19.1588 15.646 24.2339 15.5419 28.7474L15.5433 28.7419Z" fill="white"/>
<path d="M16.8715 22.3437L16.5824 19.3438L16.7276 20.8437L16.5742 19.3452C16.592 19.3438 18.4303 19.1315 19.3741 17.9494C21.6055 15.155 22.9054 9.70181 22.6767 6.55539C22.578 5.20614 21.8972 4.30208 20.5343 3.70896C19.359 3.19802 18.1563 3.16104 18.144 3.15967L18.2043 0.146118C20.6384 0.189952 25.3327 1.5392 25.682 6.33486C25.9559 10.1004 24.5231 16.3316 21.7288 19.8287C20.0083 21.982 17.1879 22.3122 16.8715 22.3423V22.3437Z" fill="white"/>
</svg>
